# xmcd CD database file
#
# Track frame offsets:
#	150
#	5257
#	21722
#	33325
#	52822
#	70182
#	87620
#	107187
#	131555
#	150315
#	161555
#	167260
#	185965
#	202122
#	219285
#	240612
#	257632
#
# Disc length: 3721 seconds
#
# Revision: 3
# Processed by: cddbd v1.5.2PL0 Copyright (c) Steve Scherf et al.
# Submitted via: CDex 1.70beta2
#
DISCID=e50e8711
DTITLE=特撮 - 初めての特撮 BEST vol. 1
DYEAR=2002
DGENRE=Hard Rock
TTITLE0=Invitation
TTITLE1=ジェロニモ
TTITLE2=アベルカイン
TTITLE3=ヨギナクサレ [完全版]
TTITLE4=パティー・サワディー
TTITLE5=ピアノ・デス・ピアノ
TTITLE6=殺神 (Album Version)
TTITLE7=オーケンのアザナエル
TTITLE8=テレパシー
TTITLE9=ヤンガリー
TTITLE10=アクアヤンガリー
TTITLE11=人狼天使
TTITLE12=カーネーション・リインカネーション
TTITLE13=文豪ボースカ
TTITLE14=バーバレラ
TTITLE15=スウェードの愛のテーマ
TTITLE16=ケテルビー (Album Version)
EXTD=YEAR: 2002
EXTT0=
EXTT1=
EXTT2=
EXTT3=
EXTT4=
EXTT5=
EXTT6=
EXTT7=
EXTT8=
EXTT9=
EXTT10=
EXTT11=
EXTT12=
EXTT13=
EXTT14=
EXTT15=
EXTT16=
PLAYORDER=
